<mxfile host="app.diagrams.net" modified="2023-11-25T11:47:46.753Z" agent="Mozilla/5.0 (Windows NT 10.0; Win64; x64) AppleWebKit/537.36 (KHTML, like Gecko) Chrome/119.0.0.0 Safari/537.36" etag="yGV3WhpskAkSmWBrSzXX" version="22.1.4" type="github">
  <diagram name="Page-1" id="3i6eewi1Hv_HVb1HH1bP">
    <mxGraphModel dx="880" dy="506" grid="1" gridSize="10" guides="1" tooltips="1" connect="1" arrows="1" fold="1" page="1" pageScale="1" pageWidth="850" pageHeight="1100" math="0" shadow="0">
      <root>
        <mxCell id="0" />
        <mxCell id="1" parent="0" />
        <mxCell id="jYFMkn6DU6b-8s4b_eg8-3" value="Visit site" style="ellipse;whiteSpace=wrap;html=1;" vertex="1" parent="1">
          <mxGeometry x="330" y="150" width="180" height="40" as="geometry" />
        </mxCell>
        <mxCell id="jYFMkn6DU6b-8s4b_eg8-4" value="Login" style="ellipse;whiteSpace=wrap;html=1;" vertex="1" parent="1">
          <mxGeometry x="330" y="220" width="180" height="40" as="geometry" />
        </mxCell>
        <mxCell id="jYFMkn6DU6b-8s4b_eg8-5" value="" style="endArrow=classic;html=1;rounded=0;exitX=0.5;exitY=1;exitDx=0;exitDy=0;entryX=0.5;entryY=0;entryDx=0;entryDy=0;" edge="1" parent="1" source="jYFMkn6DU6b-8s4b_eg8-3" target="jYFMkn6DU6b-8s4b_eg8-4">
          <mxGeometry width="50" height="50" relative="1" as="geometry">
            <mxPoint x="400" y="290" as="sourcePoint" />
            <mxPoint x="450" y="240" as="targetPoint" />
          </mxGeometry>
        </mxCell>
        <mxCell id="jYFMkn6DU6b-8s4b_eg8-6" value="&lt;b&gt;&lt;font style=&quot;font-size: 14px;&quot;&gt;Valid&lt;/font&gt;&lt;/b&gt;" style="rhombus;whiteSpace=wrap;html=1;" vertex="1" parent="1">
          <mxGeometry x="356" y="294" width="130" height="70" as="geometry" />
        </mxCell>
        <mxCell id="jYFMkn6DU6b-8s4b_eg8-8" value="" style="shape=link;html=1;rounded=0;width=-6;strokeColor=#000000;fillColor=#1ba1e2;strokeWidth=6;" edge="1" parent="1">
          <mxGeometry width="100" relative="1" as="geometry">
            <mxPoint x="40" y="400" as="sourcePoint" />
            <mxPoint x="810" y="400" as="targetPoint" />
          </mxGeometry>
        </mxCell>
        <mxCell id="jYFMkn6DU6b-8s4b_eg8-9" value="" style="shape=link;html=1;rounded=0;width=-6;strokeColor=#000000;fillColor=#1ba1e2;strokeWidth=6;" edge="1" parent="1">
          <mxGeometry width="100" relative="1" as="geometry">
            <mxPoint x="40" y="600" as="sourcePoint" />
            <mxPoint x="810" y="600" as="targetPoint" />
          </mxGeometry>
        </mxCell>
        <mxCell id="jYFMkn6DU6b-8s4b_eg8-10" value="" style="endArrow=classic;html=1;rounded=0;exitX=0.5;exitY=1;exitDx=0;exitDy=0;entryX=0.5;entryY=0;entryDx=0;entryDy=0;" edge="1" parent="1" source="jYFMkn6DU6b-8s4b_eg8-4" target="jYFMkn6DU6b-8s4b_eg8-6">
          <mxGeometry width="50" height="50" relative="1" as="geometry">
            <mxPoint x="400" y="460" as="sourcePoint" />
            <mxPoint x="450" y="410" as="targetPoint" />
          </mxGeometry>
        </mxCell>
        <mxCell id="jYFMkn6DU6b-8s4b_eg8-11" value="" style="endArrow=classic;html=1;rounded=0;exitX=0.5;exitY=1;exitDx=0;exitDy=0;" edge="1" parent="1" source="jYFMkn6DU6b-8s4b_eg8-6">
          <mxGeometry width="50" height="50" relative="1" as="geometry">
            <mxPoint x="400" y="460" as="sourcePoint" />
            <mxPoint x="421" y="400" as="targetPoint" />
          </mxGeometry>
        </mxCell>
        <mxCell id="jYFMkn6DU6b-8s4b_eg8-12" value="" style="endArrow=classic;html=1;rounded=0;exitX=1;exitY=0.5;exitDx=0;exitDy=0;entryX=1;entryY=0.5;entryDx=0;entryDy=0;" edge="1" parent="1" source="jYFMkn6DU6b-8s4b_eg8-6" target="jYFMkn6DU6b-8s4b_eg8-4">
          <mxGeometry width="50" height="50" relative="1" as="geometry">
            <mxPoint x="400" y="460" as="sourcePoint" />
            <mxPoint x="570" y="330" as="targetPoint" />
            <Array as="points">
              <mxPoint x="560" y="329" />
              <mxPoint x="560" y="240" />
            </Array>
          </mxGeometry>
        </mxCell>
        <mxCell id="jYFMkn6DU6b-8s4b_eg8-13" value="Manage Profile" style="ellipse;whiteSpace=wrap;html=1;" vertex="1" parent="1">
          <mxGeometry x="30" y="420" width="150" height="30" as="geometry" />
        </mxCell>
        <mxCell id="jYFMkn6DU6b-8s4b_eg8-14" value="Manage Route Detail" style="ellipse;whiteSpace=wrap;html=1;" vertex="1" parent="1">
          <mxGeometry x="190" y="420" width="150" height="30" as="geometry" />
        </mxCell>
        <mxCell id="jYFMkn6DU6b-8s4b_eg8-15" value="Manage Ticket Dietail" style="ellipse;whiteSpace=wrap;html=1;" vertex="1" parent="1">
          <mxGeometry x="350" y="420" width="150" height="30" as="geometry" />
        </mxCell>
        <mxCell id="jYFMkn6DU6b-8s4b_eg8-16" value="Reserve Details" style="ellipse;whiteSpace=wrap;html=1;" vertex="1" parent="1">
          <mxGeometry x="530" y="420" width="150" height="30" as="geometry" />
        </mxCell>
        <mxCell id="jYFMkn6DU6b-8s4b_eg8-17" value="" style="endArrow=classic;html=1;rounded=0;entryX=0.5;entryY=0;entryDx=0;entryDy=0;" edge="1" parent="1" target="jYFMkn6DU6b-8s4b_eg8-13">
          <mxGeometry width="50" height="50" relative="1" as="geometry">
            <mxPoint x="105" y="400" as="sourcePoint" />
            <mxPoint x="450" y="410" as="targetPoint" />
          </mxGeometry>
        </mxCell>
        <mxCell id="jYFMkn6DU6b-8s4b_eg8-18" value="" style="endArrow=classic;html=1;rounded=0;entryX=0.5;entryY=0;entryDx=0;entryDy=0;" edge="1" parent="1">
          <mxGeometry width="50" height="50" relative="1" as="geometry">
            <mxPoint x="270" y="400" as="sourcePoint" />
            <mxPoint x="270" y="420" as="targetPoint" />
          </mxGeometry>
        </mxCell>
        <mxCell id="jYFMkn6DU6b-8s4b_eg8-19" value="" style="endArrow=classic;html=1;rounded=0;entryX=0.5;entryY=0;entryDx=0;entryDy=0;" edge="1" parent="1">
          <mxGeometry width="50" height="50" relative="1" as="geometry">
            <mxPoint x="420" y="400" as="sourcePoint" />
            <mxPoint x="420" y="420" as="targetPoint" />
          </mxGeometry>
        </mxCell>
        <mxCell id="jYFMkn6DU6b-8s4b_eg8-20" value="" style="endArrow=classic;html=1;rounded=0;entryX=0.5;entryY=0;entryDx=0;entryDy=0;" edge="1" parent="1">
          <mxGeometry width="50" height="50" relative="1" as="geometry">
            <mxPoint x="610" y="400" as="sourcePoint" />
            <mxPoint x="610" y="420" as="targetPoint" />
          </mxGeometry>
        </mxCell>
        <mxCell id="jYFMkn6DU6b-8s4b_eg8-21" value="" style="endArrow=classic;html=1;rounded=0;exitX=0.5;exitY=1;exitDx=0;exitDy=0;" edge="1" parent="1" source="jYFMkn6DU6b-8s4b_eg8-13">
          <mxGeometry width="50" height="50" relative="1" as="geometry">
            <mxPoint x="400" y="460" as="sourcePoint" />
            <mxPoint x="105" y="600" as="targetPoint" />
          </mxGeometry>
        </mxCell>
        <mxCell id="jYFMkn6DU6b-8s4b_eg8-22" value="" style="endArrow=classic;html=1;rounded=0;exitX=0.5;exitY=1;exitDx=0;exitDy=0;" edge="1" parent="1">
          <mxGeometry width="50" height="50" relative="1" as="geometry">
            <mxPoint x="270" y="450" as="sourcePoint" />
            <mxPoint x="270" y="600" as="targetPoint" />
          </mxGeometry>
        </mxCell>
        <mxCell id="jYFMkn6DU6b-8s4b_eg8-23" value="" style="endArrow=classic;html=1;rounded=0;exitX=0.5;exitY=1;exitDx=0;exitDy=0;" edge="1" parent="1">
          <mxGeometry width="50" height="50" relative="1" as="geometry">
            <mxPoint x="420" y="450" as="sourcePoint" />
            <mxPoint x="420" y="600" as="targetPoint" />
          </mxGeometry>
        </mxCell>
        <mxCell id="jYFMkn6DU6b-8s4b_eg8-24" value="" style="endArrow=classic;html=1;rounded=0;exitX=0.5;exitY=1;exitDx=0;exitDy=0;" edge="1" parent="1">
          <mxGeometry width="50" height="50" relative="1" as="geometry">
            <mxPoint x="610" y="450" as="sourcePoint" />
            <mxPoint x="610" y="600" as="targetPoint" />
          </mxGeometry>
        </mxCell>
        <mxCell id="jYFMkn6DU6b-8s4b_eg8-25" value="View" style="ellipse;whiteSpace=wrap;html=1;" vertex="1" parent="1">
          <mxGeometry x="336" y="630" width="150" height="30" as="geometry" />
        </mxCell>
        <mxCell id="jYFMkn6DU6b-8s4b_eg8-26" value="Logout" style="ellipse;whiteSpace=wrap;html=1;" vertex="1" parent="1">
          <mxGeometry x="336" y="690" width="150" height="30" as="geometry" />
        </mxCell>
        <mxCell id="jYFMkn6DU6b-8s4b_eg8-27" value="" style="endArrow=classic;html=1;rounded=0;entryX=0.553;entryY=0.033;entryDx=0;entryDy=0;entryPerimeter=0;" edge="1" parent="1" target="jYFMkn6DU6b-8s4b_eg8-25">
          <mxGeometry width="50" height="50" relative="1" as="geometry">
            <mxPoint x="420" y="600" as="sourcePoint" />
            <mxPoint x="450" y="570" as="targetPoint" />
          </mxGeometry>
        </mxCell>
        <mxCell id="jYFMkn6DU6b-8s4b_eg8-28" value="" style="endArrow=classic;html=1;rounded=0;entryX=0.553;entryY=0.033;entryDx=0;entryDy=0;entryPerimeter=0;" edge="1" parent="1">
          <mxGeometry width="50" height="50" relative="1" as="geometry">
            <mxPoint x="420" y="660" as="sourcePoint" />
            <mxPoint x="419" y="691" as="targetPoint" />
          </mxGeometry>
        </mxCell>
        <mxCell id="jYFMkn6DU6b-8s4b_eg8-32" value="" style="ellipse;html=1;shape=endState;fillColor=#000000;strokeColor=#ff0000;" vertex="1" parent="1">
          <mxGeometry x="386" y="750" width="60" height="60" as="geometry" />
        </mxCell>
        <mxCell id="jYFMkn6DU6b-8s4b_eg8-34" value="" style="endArrow=classic;html=1;rounded=0;" edge="1" parent="1" target="jYFMkn6DU6b-8s4b_eg8-32">
          <mxGeometry width="50" height="50" relative="1" as="geometry">
            <mxPoint x="420" y="720" as="sourcePoint" />
            <mxPoint x="419" y="751" as="targetPoint" />
          </mxGeometry>
        </mxCell>
        <mxCell id="jYFMkn6DU6b-8s4b_eg8-35" value="" style="ellipse;html=1;shape=startState;fillColor=#000000;strokeColor=#ff0000;" vertex="1" parent="1">
          <mxGeometry x="391" y="30" width="55" height="70" as="geometry" />
        </mxCell>
        <mxCell id="jYFMkn6DU6b-8s4b_eg8-37" value="" style="endArrow=classic;html=1;rounded=0;exitX=0.5;exitY=1;exitDx=0;exitDy=0;entryX=0.5;entryY=0;entryDx=0;entryDy=0;" edge="1" parent="1" source="jYFMkn6DU6b-8s4b_eg8-35" target="jYFMkn6DU6b-8s4b_eg8-3">
          <mxGeometry width="50" height="50" relative="1" as="geometry">
            <mxPoint x="400" y="290" as="sourcePoint" />
            <mxPoint x="450" y="240" as="targetPoint" />
          </mxGeometry>
        </mxCell>
        <mxCell id="jYFMkn6DU6b-8s4b_eg8-38" value="&lt;b&gt;&lt;font style=&quot;font-size: 14px;&quot;&gt;Admin&lt;/font&gt;&lt;/b&gt;" style="text;html=1;strokeColor=none;fillColor=none;align=center;verticalAlign=middle;whiteSpace=wrap;rounded=0;" vertex="1" parent="1">
          <mxGeometry x="381" y="10" width="60" height="30" as="geometry" />
        </mxCell>
        <mxCell id="jYFMkn6DU6b-8s4b_eg8-39" value="&lt;b&gt;&lt;font style=&quot;font-size: 14px;&quot;&gt;NO&lt;/font&gt;&lt;/b&gt;" style="text;html=1;strokeColor=none;fillColor=none;align=center;verticalAlign=middle;whiteSpace=wrap;rounded=0;" vertex="1" parent="1">
          <mxGeometry x="560" y="260" width="60" height="30" as="geometry" />
        </mxCell>
        <mxCell id="jYFMkn6DU6b-8s4b_eg8-40" value="&lt;b&gt;&lt;font style=&quot;font-size: 14px;&quot;&gt;Yes&lt;/font&gt;&lt;/b&gt;" style="text;html=1;strokeColor=none;fillColor=none;align=center;verticalAlign=middle;whiteSpace=wrap;rounded=0;" vertex="1" parent="1">
          <mxGeometry x="426" y="364" width="60" height="30" as="geometry" />
        </mxCell>
      </root>
    </mxGraphModel>
  </diagram>
</mxfile>
